<svg xmlns="http://www.w3.org/2000/svg" viewBox="0 0 100 100" role="img" aria-label="Eco Foundation"><title>Eco Foundation</title><defs><radialGradient id="e" cx=".35" cy=".3" r=".8"><stop offset="0" stop-color="#2f7d7a"/><stop offset="1" stop-color="#0d3337"/></radialGradient></defs><circle cx="50" cy="50" r="48" fill="#e7f4ee"/><circle cx="50" cy="63" r="24" fill="url(#e)"/><path d="M34 58c6-4 12-2 15 3s9 6 13 2c-1 8-9 11-16 9s-12-7-12-14z" fill="#79c267" opacity=".95"/><path d="M58 48c5 0 9 3 10 7-4 1-8-1-10-7z" fill="#79c267"/><path d="M50 40V26" stroke="#2e8b3d" stroke-width="3" stroke-linecap="round"/><path d="M50 30C47 20 38 16 29 18c2 9 11 14 21 12z" fill="#3c9d46"/><path d="M50 27c3-9 12-13 21-11-2 9-11 13-21 11z" fill="#5cb85c"/></svg>
